
<svg width="17px" height="17px" viewBox="0 0 17 17" version="1.1" xmlns="http://www.w3.org/2000/svg" xmlns:xlink="http://www.w3.org/1999/xlink">
    <!-- Generator: Sketch 50 (54983) - http://www.bohemiancoding.com/sketch -->
    <desc>Created with Sketch.</desc>
    <defs>
        <polygon id="path-1" points="0 0 17 0 17 17 0 17"></polygon>
    </defs>
    <g id="Mobile" stroke="none" stroke-width="1" fill="none" fill-rule="evenodd">
        <g id="Mobile-A-2" transform="translate(-27.000000, -1394.000000)">
            <g id="Group" transform="translate(0.000000, 1275.000000)">
                <g id="Page-1" transform="translate(27.000000, 119.000000)">
                    <mask id="mask-2" fill="white">
                        <use xlink:href="#path-1"></use>
                    </mask>
                    <g id="Clip-2"></g>
                    <path d="M12.067518,2.14183264 C12.612092,2.99954275 12.9877083,3.92634423 13.2823368,4.86989514 L14.8406561,4.86989514 C14.1501643,3.69464386 13.234163,2.79226862 12.067518,2.14183264 Z M11.8790116,14.9732875 C13.1364189,14.3193621 14.1257282,13.39605 14.8406561,12.1551968 L13.1985562,12.1551968 C12.8732082,13.1552771 12.4473234,14.0960364 11.8790116,14.9732875 Z M5.56544474,1.84313457 C4.09160423,2.47263377 2.96824592,3.48388027 2.15766855,4.89083192 L4.13000367,4.89083192 C4.46163524,3.79932776 4.90846514,2.77342552 5.56544474,1.84313457 Z M4.17747935,12.1558947 L2.15417769,12.1558947 C3.01292891,13.6089073 4.19283913,14.6438822 5.71974069,15.2852455 C5.42790491,14.7743881 5.11721849,14.2837695 4.86168764,13.7659332 C4.60545861,13.246701 4.4057815,12.6995531 4.17747935,12.1558947 Z M8.08654283,15.7095643 L8.08654283,12.1558947 L5.47328607,12.1558947 C5.79723775,13.0324479 6.17704317,13.8601487 6.75722387,14.573395 C7.02043461,14.8979151 7.34438629,15.1763743 7.65577088,15.4590208 C7.76957287,15.561611 7.92596334,15.6188382 8.08654283,15.7095643 Z M9.3146269,15.6683886 C10.1224116,15.5497469 11.7442645,13.3541765 11.909033,12.1503116 L9.3146269,12.1503116 L9.3146269,15.6683886 Z M8.09422272,1.32808977 C6.90104724,1.66028669 5.7539511,3.55018007 5.41743233,4.87617617 L8.09422272,4.87617617 L8.09422272,1.32808977 Z M12.0018899,4.87826985 C11.9963045,4.83779207 11.9970027,4.80359533 11.9865301,4.77358595 C11.7191303,4.0052061 11.380517,3.271023 10.8987785,2.61011863 C10.5601653,2.14602 10.1705854,1.73286753 9.65603287,1.45789781 C9.5492126,1.39997272 9.43401426,1.35740127 9.31532507,1.30505932 L9.31532507,4.87826985 L12.0018899,4.87826985 Z M13.5951177,6.07027055 C13.8813681,7.69147525 13.9155786,9.30151367 13.5539256,10.9171352 L15.4089679,10.9171352 C15.9695998,9.29383685 15.9591272,7.68379843 15.401288,6.07027055 L13.5951177,6.07027055 Z M3.86190573,10.9366762 C3.50513998,9.31616941 3.5170089,7.71241203 3.81582639,6.09539469 L1.58656408,6.09539469 C1.03361207,7.71380782 1.03361207,9.32245045 1.58935676,10.9366762 L3.86190573,10.9366762 Z M8.09073186,10.9192289 L8.09073186,6.10237361 L5.05438303,6.10237361 C4.70110814,7.72148464 4.68854105,9.31896099 5.10325505,10.9192289 L8.09073186,10.9192289 Z M12.3132745,10.9352804 C12.7244976,9.31896099 12.7035524,7.72078674 12.3544666,6.11423779 L9.31532507,6.11423779 L9.31532507,10.9352804 L12.3132745,10.9352804 Z M8.45168664,0 C13.1908763,0.0397798829 16.8981682,3.70860171 16.9980067,8.33842177 C17.0936563,12.7986539 13.7382429,16.8464315 8.80426337,16.9957805 C3.89681431,17.1437337 0.042208223,13.3827901 0.000317919498,8.55197693 C-0.0387796971,3.97449883 3.53236867,0.0635082341 8.45168664,0 Z" id="Fill-1" fill="#000000" mask="url(#mask-2)"></path>
                </g>
            </g>
        </g>
    </g>
</svg>