
<svg width="14px" height="15px" viewBox="0 0 14 15" version="1.1" xmlns="http://www.w3.org/2000/svg" xmlns:xlink="http://www.w3.org/1999/xlink">
    <!-- Generator: Sketch 50 (54983) - http://www.bohemiancoding.com/sketch -->
    <desc>Created with Sketch.</desc>
    <defs></defs>
    <g id="Mobile" stroke="none" stroke-width="1" fill="none" fill-rule="evenodd">
        <g id="Mobile-A-2" transform="translate(-26.000000, -1355.000000)" fill="#000000">
            <g id="Group" transform="translate(0.000000, 1275.000000)">
                <path d="M26,84.4513389 C26.0009304,83.8783069 26.1178504,83.2278383 26.3817732,82.6064858 C26.6404238,81.9981428 27.0091715,81.4663072 27.5041431,81.0264665 C27.8000096,80.7634913 28.1045598,80.510428 28.4100404,80.2586037 C28.5604547,80.1343952 28.7328884,80.047666 28.9279618,80.0132841 C29.1484661,79.9748755 29.3534638,80.0216473 29.5460561,80.1291295 C29.8099789,80.276569 30.0115651,80.4927724 30.1976447,80.7250827 C30.4476116,81.0373076 30.6495079,81.382056 30.8653602,81.7172022 C31.0232177,81.9615926 31.1758029,82.2093902 31.3007863,82.4726751 C31.4279407,82.7412258 31.5293541,83.0178298 31.5606774,83.3154967 C31.6044061,83.7283894 31.4974104,84.0972981 31.2145695,84.4014696 C31.0542309,84.5743084 30.8669108,84.7220577 30.6944771,84.8837456 C30.5248346,85.0432653 30.3310017,85.1702616 30.1436816,85.3062405 C29.9210064,85.4679285 29.7495031,85.670503 29.6772422,85.9433901 C29.6164562,86.1732223 29.632273,86.4024351 29.6853056,86.6310284 C29.7572564,86.9401559 29.8890628,87.2254328 30.0435088,87.5007979 C30.3185964,87.9908176 30.6563308,88.4365435 31.0151542,88.8670918 C31.3550595,89.2740994 31.7098512,89.667478 32.0956562,90.0314307 C32.4430047,90.3594528 32.8077206,90.6648633 33.2326023,90.8903591 C33.4645815,91.0133287 33.7064849,91.1050138 33.9722685,91.1223596 C34.282091,91.1424932 34.5475645,91.0390377 34.7783031,90.8373924 C34.8288547,90.7930986 34.8806469,90.7481853 34.9240654,90.6967673 C35.1209996,90.4647668 35.3582511,90.2758211 35.5852681,90.0757246 C35.715834,89.9608084 35.8470201,89.847441 35.998985,89.7604021 C36.3677327,89.5491547 36.7538478,89.5237554 37.1542289,89.650442 C37.4838999,89.7545169 37.7791461,89.9251875 38.0474108,90.137674 C38.3718095,90.3944542 38.6847333,90.6651731 39.0007584,90.9318652 C39.2252944,91.1214304 39.4374251,91.3233854 39.6225743,91.5519787 C39.7556212,91.7167641 39.8713006,91.8920809 39.9417007,92.0934164 C40.0601714,92.4328991 39.9959739,92.7426461 39.7683366,93.0136747 C39.6610307,93.1409807 39.5332561,93.2515604 39.4101334,93.3643083 C39.1976926,93.5591391 38.9858721,93.7545895 38.7662982,93.9407474 C38.3116438,94.3263824 37.795273,94.602367 37.2271101,94.78233 C36.6955428,94.9505226 36.1503297,95.0177377 35.5936417,94.9960554 C34.7891578,94.9650807 34.0302633,94.7525942 33.3023821,94.4189967 C32.5264303,94.0634072 31.8249104,93.5907333 31.1658787,93.0523931 C30.7164965,92.6850331 30.291925,92.2904155 29.8875121,91.8744253 C29.169245,91.1359885 28.5037004,90.3529481 27.9063851,89.5129143 C27.4132742,88.8197005 26.9766075,88.0930341 26.6354617,87.3118522 C26.3684375,86.7001019 26.1680919,86.0682181 26.0666785,85.4069083 C26.0232599,85.1234898 26.0009304,84.8385226 26,84.4513389" id="Fill-1"></path>
            </g>
        </g>
    </g>
</svg>