
<svg width="63px" height="13px" viewBox="0 0 63 13" version="1.1" xmlns="http://www.w3.org/2000/svg" xmlns:xlink="http://www.w3.org/1999/xlink">
    <!-- Generator: Sketch 50.2 (55047) - http://www.bohemiancoding.com/sketch -->
    <desc>Created with Sketch.</desc>
    <defs></defs>
    <g id="Symbols" stroke="none" stroke-width="1" fill="none" fill-rule="evenodd">
        <g id="video-box-h2-copy" transform="translate(-219.000000, -295.000000)" fill="#A4AEB3">
            <path d="M265.436389,308 C266.789155,302.487338 269.846605,299.154708 275.325762,298.302582 L275.325762,295 C277.333727,297.037363 279.317265,299.049868 281.272918,301.034271 C279.395949,302.901944 277.387768,304.900181 275.365753,306.912253 L275.365753,303.558872 C271.433695,303.5325 268.067992,304.578526 265.436389,308" id="Fill-1"></path>
            <path d="M219.07,301.1 L219.07,300.02 L224.24,300.02 L224.24,301.1 L222.35,301.1 L222.35,307 L220.95,307 L220.95,301.1 L219.07,301.1 Z M230.6,300 L230.6,301.08 L227.98,301.08 L227.98,302.91 L230.3,302.91 L230.3,303.99 L227.98,303.99 L227.98,305.92 L230.6,305.92 L230.6,307 L226.57,307 L226.57,300 L230.6,300 Z M233.29,307 L233.29,300.02 L234.7,300.02 L234.7,307 L233.29,307 Z M237.45,300.02 L238.86,300.02 L238.86,305.93 L241.1,305.93 L241.1,307 L237.45,307 L237.45,300.02 Z M247.33,300 L247.33,301.08 L244.71,301.08 L244.71,302.91 L247.03,302.91 L247.03,303.99 L244.71,303.99 L244.71,305.92 L247.33,305.92 L247.33,307 L243.3,307 L243.3,300 L247.33,300 Z M254.59,300 L256,300 L256,307 L254.59,307 L251.43,302.16 L251.43,307 L250.02,307 L250.02,300 L251.43,300 L254.59,304.84 L254.59,300 Z" id="Teilen"></path>
        </g>
    </g>
</svg>