<?xml version="1.0" encoding="utf-8"?>
<!-- Generator: Adobe Illustrator 21.1.0, SVG Export Plug-In . SVG Version: 6.00 Build 0)  -->
<svg version="1.1" id="Ebene_1" xmlns="http://www.w3.org/2000/svg" xmlns:xlink="http://www.w3.org/1999/xlink" x="0px" y="0px"
	 width="38px" height="38px" viewBox="0 0 38 38" style="enable-background:new 0 0 38 38;" xml:space="preserve">
<desc>Created with Sketch.</desc>
<g id="Mobile">
	<g id="Mobile-A" transform="translate(-282.000000, -1283.000000)">
		<g id="_x32_4h-Label" transform="translate(282.000000, 1275.000000)">
			<polygon id="Rectangle-7" style="fill:#56EDB7;" points="0,8 38,8 38,46 			"/>
			<g style="enable-background:new    ;">
				<path style="fill:#FFFFFF;" d="M13.7,15.6l0.7-0.7c0.3,0,0.7,0,1.2,0.1c0.5,0,0.9,0.1,1.2,0.1c0.3,0,0.6,0,1,0s0.8,0,1,0
					c0.3,0,0.5-0.1,0.9-0.1c0.6-0.1,1-0.3,1.3-0.6c0.7-0.7,0.7-1.4,0.1-2.1c-0.3-0.3-0.7-0.5-1.1-0.5s-0.8,0.2-1.1,0.6L18,11.5
					c0.7-0.6,1.3-0.9,2.1-0.9c0.7,0,1.4,0.3,2,0.9c0.6,0.6,0.9,1.2,0.9,1.9s-0.3,1.3-0.8,1.8c-0.4,0.4-0.9,0.7-1.5,0.8
					c-0.3,0.1-0.6,0.1-0.9,0.2c-0.3,0-0.6,0.1-1,0.1s-0.7,0-0.9,0c-0.2,0-0.5,0-0.9,0s-0.7,0-0.8,0l2.7,2.7l-0.8,0.8L13.7,15.6z"/>
				<path style="fill:#FFFFFF;" d="M21.5,23.6l1.3-1.3l-3.1-3.1l0.7-0.7l6.9-1.2l1.2,1.2l-4,4l0.8,0.8l-0.8,0.8l-0.8-0.8l-1.3,1.3
					L21.5,23.6z M23.7,21.5l3-3l-5,1L23.7,21.5z"/>
				<path style="fill:#FFFFFF;" d="M34,23.5l-2.3,2.3c0.9-0.2,1.6,0,2.3,0.7c0.5,0.5,0.8,1.1,0.8,1.8c0,0.7-0.3,1.4-1,2L31,33.1
					l-1-1l2.6-2.6c0.4-0.4,0.6-0.8,0.6-1.3c0-0.4-0.2-0.8-0.5-1.2c-0.4-0.4-0.8-0.5-1.2-0.5c-0.4,0-0.9,0.2-1.3,0.6l-2.6,2.6l-1-1
					l6.3-6.3L34,23.5z"/>
			</g>
		</g>
	</g>
</g>
</svg>
